<?xml version="1.0" encoding="UTF-8" standalone="no"?>
<!DOCTYPE svg PUBLIC "-//W3C//DTD SVG 1.1//EN" "http://www.w3.org/Graphics/SVG/1.1/DTD/svg11.dtd">
<svg version="1.1" xmlns="http://www.w3.org/2000/svg" xmlns:xlink="http://www.w3.org/1999/xlink" preserveAspectRatio="xMidYMid meet" width="200" height="200" viewBox="0 0 200 200"><g><g><defs><path d="M102.70346742032274 2.834843565178545 L105.37910615945697 3.0045736439204234 L108.02480630791555 3.28476708881297 L110.6384579562114 3.673222974665663 L113.21795119485736 4.167740376288066 L115.76117611436632 4.7661183684896 L118.26602280525114 5.4661560260798865 L120.73038135802466 6.2656524238683176 L123.15214186319986 7.162406636664514 L125.52919441128952 8.154217739277925 L127.85942909280655 9.238884806518087 L130.14073599826386 10.414206913194448 L132.37100521817428 11.677983134116602 L134.54812684305068 13.028012544094025 L136.66999096340598 14.462094217936226 L138.73448766975304 15.97802723045271 L140.73950705260472 17.573610656452985 L142.68293920247393 19.246643570746528 L144.56267420987345 20.99492504814293 L146.3766021653163 22.816254163451674 L148.1226131593153 24.708429991482234 L149.7985972823833 26.669251607044146 L151.40244462503307 28.696518084946888 L152.9320452777777 30.788028500000024 L154.38528933112994 32.94158192701303 L155.7600668756028 35.15497744079542 L157.054268001709 37.42601411615672 L158.2657827999613 39.752491027906416 L159.39250136087296 42.13220725085401 L160.43231377495653 44.562961859809036 L161.38311013272505 47.04255392958103 L162.2427805246913 49.568782534979476 L163.00921504136815 52.13944675081382 L163.68030377326863 54.75234565189368 L164.2539368109055 57.405278313028475 L164.72800424479163 60.096043809027805 L165.10039616543992 62.822441214701115 L165.36900266336315 65.58226960485791 L165.53171382907433 68.37332805430773 L165.58641975308637 71.19341563786008 L165.5317138290744 74.01440342717376 L165.3690026633632 76.81176331695286 L165.10039616543986 79.58869561657463 L164.72800424479163 82.34840063541668 L164.2539368109055 85.09407868285632 L163.68030377326863 87.82893006827095 L163.00921504136824 90.55615510103803 L162.24278052469128 93.27895409053502 L161.38311013272505 96.00052734613917 L160.43231377495653 98.72407517722803 L159.39250136087296 101.45279789317897 L158.2657827999613 104.18989580336932 L157.05426800170892 106.93856921717668 L155.7600668756028 109.70201844397826 L154.38528933112994 112.4834437931516 L152.93204527777775 115.28604557407408 L151.4024446250331 118.11302409612307 L149.79859728238324 120.96757966867608 L148.12261315931528 123.85291260111035 L146.37660216531637 126.7722232028035 L144.56267420987345 129.72871178313278 L142.68293920247393 132.72557865147576 L140.73950705260472 135.76602411720967 L138.73448766975304 138.85324848971197 L136.66999096340598 141.99045207836008 L134.5481268430507 145.18083519253156 L132.3710052181743 148.4275981416036 L130.14073599826384 151.73394123495365 L127.85942909280655 155.1030647819593 L125.52919441128952 158.53816909199782 L123.15214186319986 162.04245447444657 L120.73038135802469 165.61912123868314 L118.26602280525108 169.27136969408474 L115.7611761143663 173.0024001500289 L113.21795119485736 176.8154129158931 L110.6384579562114 180.71360830105453 L108.02480630791558 184.70018661489075 L105.37910615945694 188.77834816677915 L102.70346742032274 192.9512932660972 L99.99999999999997 197.22222222222223 L97.29653257967723 192.9512932660972 L94.620893840543 188.77834816677915 L91.97519369208442 184.70018661489075 L89.36154204378857 180.71360830105453 L86.78204880514264 176.8154129158931 L84.2388238856337 173.0024001500289 L81.73397719474889 169.27136969408474 L79.26961864197533 165.61912123868314 L76.84785813680014 162.04245447444657 L74.47080558871048 158.53816909199782 L72.14057090719344 155.1030647819593 L69.85926400173612 151.7339412349537 L67.6289947818257 148.4275981416036 L65.4518731569493 145.18083519253156 L63.33000903659401 141.99045207836008 L61.265512330246935 138.85324848971197 L59.260492947395264 135.76602411720967 L57.31706079752607 132.7255786514757 L55.43732579012651 129.72871178313278 L53.62339783468366 126.7722232028035 L51.87738684068469 123.85291260111035 L50.20140271761673 120.96757966867608 L48.59755537496687 118.11302409612307 L47.067954722222254 115.28604557407402 L45.61471066886999 112.4834437931516 L44.23993312439721 109.70201844397832 L42.94573199829105 106.93856921717668 L41.7342172000386 104.18989580336932 L40.60749863912703 101.45279789317897 L39.56768622504343 98.72407517722803 L38.61688986727495 96.00052734613917 L37.75721947530869 93.27895409053502 L36.990784958631764 90.55615510103803 L36.319696226731324 87.82893006827095 L35.746063189094485 85.09407868285632 L35.27199575520838 82.34840063541668 L34.8996038345601 79.58869561657468 L34.630997336636796 76.8117633169528 L34.46828617092561 74.01440342717373 L34.413580246913625 71.19341563786008 L34.46828617092561 68.37332805430773 L34.630997336636796 65.58226960485791 L34.8996038345601 62.822441214701115 L35.271995755208366 60.096043809027805 L35.746063189094485 57.405278313028475 L36.319696226731324 54.75234565189368 L36.990784958631764 52.13944675081382 L37.75721947530867 49.56878253497945 L38.61688986727495 47.04255392958103 L39.56768622504343 44.562961859809036 L40.60749863912703 42.13220725085401 L41.734217200038614 39.752491027906416 L42.94573199829105 37.42601411615669 L44.23993312439721 35.15497744079542 L45.61471066886999 32.94158192701303 L47.067954722222254 30.788028500000024 L48.59755537496689 28.696518084946888 L50.20140271761673 26.669251607044146 L51.87738684068469 24.708429991482234 L53.62339783468367 22.816254163451674 L55.43732579012651 20.99492504814293 L57.317060797526096 19.246643570746528 L59.260492947395235 17.573610656452985 L61.265512330246935 15.97802723045271 L63.33000903659401 14.462094217936226 L65.4518731569493 13.028012544094025 L67.62899478182574 11.677983134116602 L69.85926400173612 10.414206913194448 L72.14057090719344 9.238884806518087 L74.47080558871048 8.154217739277925 L76.84785813680014 7.162406636664514 L79.26961864197533 6.2656524238683176 L81.73397719474889 5.466156026079858 L84.2388238856337 4.7661183684896 L86.78204880514261 4.167740376288066 L89.36154204378857 3.673222974665663 L91.97519369208445 3.28476708881297 L94.620893840543 3.0045736439204234 L97.29653257967723 2.834843565178545 L99.99999999999997 2.7777777777778 L102.70346742032274 2.834843565178545  z M98.71941016932081 35.21221634763819 L97.45200234552036 35.292614805989615 L96.19877595940841 35.425338016728176 L94.9607304417946 35.60934343634261 L93.7388652234886 35.843588521321635 L92.53417973530017 36.127030728153954 L91.34767340803893 36.45862751332828 L90.18034567251462 36.837336333333354 L89.03319595953693 37.262114644657885 L87.90722369991548 37.731919903790526 L86.80342832446004 38.245709567220075 L85.72280926398025 38.802441091435185 L84.66636594928588 39.40107193292465 L83.63509781118651 40.0405595481771 L82.63000428049187 40.7198613936813 L81.65208478801169 41.43793492592596 L80.7023387645556 42.19373760139979 L79.78176564093341 42.98622687659147 L78.89136484795465 43.81436020798972 L78.0321358164291 44.67709505208336 L77.2050779771664 45.57338886536098 L76.41119076097635 46.50219910431136 L75.65147359866852 47.4624832254232 L74.92692592105261 48.453198685185214 L74.2385471589384 49.473302940086086 L73.58733674313551 50.52175344661458 L72.97429410445363 51.597507661259414 L72.40041867370246 52.69952304050926 L71.86670988169175 53.82675704085287 L71.37416715923109 54.97816711877894 L70.92378993713022 56.15271073077619 L70.51657764619885 57.34934533333336 L70.15352971724661 58.5670283829391 L69.83564558108323 59.80471733608218 L69.56392466851844 61.061369649251304 L69.33936641036183 62.33594277893519 L69.1629702374232 63.62739418162252 L69.03573558051217 64.93468131380209 L68.95866187043842 66.25676163196252 L68.9327485380117 67.59259259259261 L68.95866187043845 68.92842355322264 L69.03573558051217 70.2505038713831 L69.1629702374232 71.55779100356264 L69.33936641036183 72.84924240625003 L69.56392466851844 74.12381553593389 L69.83564558108323 75.38046784910301 L70.15352971724661 76.61815680224612 L70.51657764619885 77.83583985185192 L70.92378993713022 79.032474454409 L71.37416715923109 80.2070180664063 L71.86670988169175 81.35842814433232 L72.40041867370246 82.48566214467593 L72.97429410445366 83.58767752392578 L73.58733674313551 84.66343173857058 L74.2385471589384 85.7118822450991 L74.92692592105261 86.7319865 L75.65147359866852 87.72270195976199 L76.41119076097635 88.68298608087389 L77.20507797716643 89.61179631982424 L78.0321358164291 90.50809013310186 L78.89136484795465 91.37082497719547 L79.78176564093339 92.19895830859377 L80.70233876455563 92.99144758378549 L81.6520847880117 93.74725025925926 L82.63000428049187 94.46532379150392 L83.63509781118648 95.14462563700812 L84.66636594928585 95.78411325226057 L85.72280926398025 96.38274409374998 L86.80342832446004 96.93947561796517 L87.90722369991548 97.45326528139469 L89.0331959595369 97.92307054052736 L90.18034567251462 98.34784885185184 L91.34767340803893 98.72655767185694 L92.53417973530017 99.05815445703126 L93.7388652234886 99.34159666386358 L94.9607304417946 99.5758417488426 L96.19877595940841 99.75984716845704 L97.45200234552036 99.8925703791956 L98.71941016932081 99.972968837547 L99.99999999999997 100 L101.28058983067916 99.972968837547 L102.54799765447962 99.8925703791956 L103.80122404059159 99.75984716845704 L105.0392695582054 99.5758417488426 L106.26113477651137 99.34159666386358 L107.46582026469983 99.05815445703121 L108.65232659196104 98.72655767185694 L109.81965432748541 98.3478488518519 L110.9668040404631 97.92307054052742 L112.0927763000845 97.45326528139469 L113.19657167553996 96.93947561796517 L114.27719073601969 96.38274409374998 L115.33363405071415 95.78411325226057 L116.36490218881349 95.14462563700812 L117.3699957195081 94.46532379150392 L118.34791521198827 93.74725025925926 L119.29766123544434 92.99144758378543 L120.21823435906663 92.19895830859377 L121.10863515204534 91.37082497719547 L121.9678641835709 90.50809013310186 L122.79492202283356 89.61179631982418 L123.58880923902365 88.68298608087383 L124.34852640133147 87.72270195976205 L125.07307407894734 86.7319865 L125.76145284106158 85.7118822450991 L126.41266325686448 84.66343173857058 L127.02570589554637 83.58767752392578 L127.59958132629751 82.48566214467593 L128.13329011830825 81.35842814433232 L128.6258328407689 80.2070180664063 L129.07621006286973 79.032474454409 L129.4834223538012 77.83583985185186 L129.84647028275342 76.61815680224612 L130.16435441891676 75.38046784910301 L130.43607533148156 74.12381553593389 L130.66063358963817 72.84924240625003 L130.83702976257683 71.55779100356264 L130.96426441948782 70.2505038713831 L131.04133812956158 68.92842355322267 L131.0672514619883 67.59259259259261 L131.04133812956158 66.25676163196252 L130.96426441948782 64.93468131380209 L130.83702976257683 63.62739418162255 L130.66063358963817 62.33594277893519 L130.43607533148156 61.061369649251304 L130.1643544189167 59.80471733608218 L129.84647028275336 58.5670283829391 L129.48342235380122 57.34934533333336 L129.0762100628698 56.15271073077619 L128.6258328407689 54.97816711877894 L128.13329011830825 53.8267570408529 L127.59958132629745 52.69952304050926 L127.0257058955464 51.597507661259414 L126.41266325686448 50.52175344661458 L125.76145284106158 49.473302940086086 L125.07307407894734 48.453198685185214 L124.34852640133147 47.46248322542317 L123.58880923902367 46.50219910431139 L122.79492202283359 45.57338886536098 L121.9678641835709 44.67709505208336 L121.10863515204534 43.81436020798972 L120.2182343590666 42.98622687659147 L119.29766123544437 42.19373760139979 L118.3479152119883 41.43793492592596 L117.3699957195081 40.71986139368133 L116.36490218881349 40.0405595481771 L115.33363405071412 39.40107193292465 L114.27719073601972 38.80244109143521 L113.19657167553996 38.245709567220075 L112.0927763000845 37.731919903790526 L110.96680404046307 37.262114644657856 L109.81965432748535 36.837336333333354 L108.65232659196104 36.45862751332828 L107.46582026469983 36.127030728153954 L106.26113477651137 35.843588521321635 L105.0392695582054 35.60934343634261 L103.80122404059156 35.425338016728176 L102.54799765447962 35.292614805989615 L101.28058983067919 35.21221634763819 L99.99999999999997 35.18518518518522 L98.71941016932081 35.21221634763819  z " id="gEMEA6siA"></path></defs><use xlink:href="#gEMEA6siA" opacity="1" fill="#d57222" fill-opacity="1"></use></g></g></svg>